<svg width="76" height="21" viewBox="0 0 76 21" fill="none" xmlns="http://www.w3.org/2000/svg">
<path d="M7.924 20.28C6.61733 20.28 5.432 19.972 4.368 19.356C3.32267 18.74 2.492 17.9093 1.876 16.864C1.27867 15.8 0.98 14.624 0.98 13.336C0.98 12.0293 1.27867 10.8533 1.876 9.808C2.492 8.76267 3.32267 7.94133 4.368 7.344C5.432 6.728 6.61733 6.42 7.924 6.42C8.95067 6.42 9.90267 6.616 10.78 7.008C11.6573 7.38133 12.4133 7.932 13.048 8.66L11.368 10.34C10.9573 9.85467 10.4533 9.49067 9.856 9.248C9.27733 8.98667 8.63333 8.856 7.924 8.856C7.084 8.856 6.33733 9.052 5.684 9.444C5.03067 9.81733 4.51733 10.34 4.144 11.012C3.77067 11.684 3.584 12.4587 3.584 13.336C3.584 14.2133 3.77067 14.988 4.144 15.66C4.51733 16.332 5.03067 16.864 5.684 17.256C6.33733 17.648 7.084 17.844 7.924 17.844C8.63333 17.844 9.27733 17.7227 9.856 17.48C10.4533 17.2187 10.9667 16.8453 11.396 16.36L13.048 18.04C12.432 18.7493 11.676 19.3 10.78 19.692C9.90267 20.084 8.95067 20.28 7.924 20.28ZM20.7898 20.28C19.4831 20.28 18.3071 19.972 17.2618 19.356C16.2164 18.74 15.3858 17.9093 14.7698 16.864C14.1538 15.8 13.8458 14.6147 13.8458 13.308C13.8458 12.02 14.1538 10.8627 14.7698 9.836C15.3858 8.79067 16.2164 7.96 17.2618 7.344C18.3071 6.728 19.4831 6.42 20.7898 6.42C22.0778 6.42 23.2444 6.728 24.2898 7.344C25.3538 7.94133 26.1938 8.76267 26.8098 9.808C27.4258 10.8533 27.7338 12.02 27.7338 13.308C27.7338 14.6147 27.4258 15.8 26.8098 16.864C26.1938 17.9093 25.3538 18.74 24.2898 19.356C23.2444 19.972 22.0778 20.28 20.7898 20.28ZM20.7898 17.844C21.6298 17.844 22.3764 17.648 23.0298 17.256C23.6831 16.864 24.1964 16.332 24.5698 15.66C24.9431 14.9693 25.1298 14.1853 25.1298 13.308C25.1298 12.4493 24.9338 11.684 24.5418 11.012C24.1684 10.34 23.6551 9.81733 23.0018 9.444C22.3671 9.052 21.6298 8.856 20.7898 8.856C19.9498 8.856 19.2031 9.052 18.5498 9.444C17.8964 9.81733 17.3831 10.34 17.0098 11.012C16.6364 11.684 16.4498 12.4493 16.4498 13.308C16.4498 14.1853 16.6364 14.9693 17.0098 15.66C17.3831 16.332 17.8964 16.864 18.5498 17.256C19.2031 17.648 19.9498 17.844 20.7898 17.844ZM30.0132 20V6.7H32.5332V20H30.0132ZM32.5332 12.412L31.5812 11.992C31.5812 10.2933 31.9732 8.94 32.7572 7.932C33.5412 6.924 34.6705 6.42 36.1452 6.42C36.8172 6.42 37.4238 6.54133 37.9652 6.784C38.5065 7.008 39.0105 7.39067 39.4772 7.932L37.8252 9.64C37.5452 9.34133 37.2372 9.12667 36.9012 8.996C36.5652 8.86533 36.1732 8.8 35.7252 8.8C34.7918 8.8 34.0265 9.09867 33.4292 9.696C32.8318 10.2933 32.5332 11.1987 32.5332 12.412ZM40.7461 20V6.7H43.2661V20H40.7461ZM43.2661 12.412L42.3141 11.992C42.3141 10.2933 42.7061 8.94 43.4901 7.932C44.2741 6.924 45.4035 6.42 46.8781 6.42C47.5501 6.42 48.1568 6.54133 48.6981 6.784C49.2395 7.008 49.7435 7.39067 50.2101 7.932L48.5581 9.64C48.2781 9.34133 47.9701 9.12667 47.6341 8.996C47.2981 8.86533 46.9061 8.8 46.4581 8.8C45.5248 8.8 44.7595 9.09867 44.1621 9.696C43.5648 10.2933 43.2661 11.1987 43.2661 12.412Z" fill="white"/>
<path d="M51.9684 20.28C51.4458 20.28 51.0071 20.1027 50.6524 19.748C50.3164 19.3747 50.1484 18.936 50.1484 18.432C50.1484 17.9093 50.3164 17.48 50.6524 17.144C51.0071 16.7893 51.4458 16.612 51.9684 16.612C52.4911 16.612 52.9204 16.7893 53.2564 17.144C53.6111 17.48 53.7884 17.9093 53.7884 18.432C53.7884 18.936 53.6111 19.3747 53.2564 19.748C52.9204 20.1027 52.4911 20.28 51.9684 20.28ZM62.4267 20.28C61.2133 20.28 60.112 19.9813 59.1227 19.384C58.1333 18.768 57.3493 17.9373 56.7707 16.892C56.2107 15.8467 55.9307 14.6707 55.9307 13.364C55.9307 12.0573 56.2107 10.8813 56.7707 9.836C57.3493 8.79067 58.124 7.96 59.0947 7.344C60.084 6.728 61.1947 6.42 62.4267 6.42C63.4347 6.42 64.3307 6.63467 65.1147 7.064C65.9173 7.47467 66.5613 8.05333 67.0467 8.8C67.532 9.528 67.8027 10.3773 67.8587 11.348V15.352C67.8027 16.304 67.532 17.1533 67.0467 17.9C66.58 18.6467 65.9453 19.2347 65.1427 19.664C64.3587 20.0747 63.4533 20.28 62.4267 20.28ZM62.8467 17.9C64.0973 17.9 65.1053 17.48 65.8707 16.64C66.636 15.7813 67.0187 14.6893 67.0187 13.364C67.0187 12.4493 66.8413 11.656 66.4867 10.984C66.1507 10.2933 65.6653 9.76133 65.0307 9.388C64.396 8.996 63.6587 8.8 62.8187 8.8C61.9787 8.8 61.232 8.996 60.5787 9.388C59.944 9.78 59.44 10.3213 59.0667 11.012C58.712 11.684 58.5347 12.4587 58.5347 13.336C58.5347 14.232 58.712 15.0253 59.0667 15.716C59.44 16.388 59.9533 16.92 60.6067 17.312C61.26 17.704 62.0067 17.9 62.8467 17.9ZM66.8507 20V16.416L67.3267 13.168L66.8507 9.948V6.7H69.3987V20H66.8507Z" fill="url(#paint0_linear_2734_3)"/>
<path d="M72.5355 20V6.7H75.0555V20H72.5355ZM73.7955 4.04C73.3289 4.04 72.9462 3.89067 72.6475 3.592C72.3489 3.27467 72.1995 2.88267 72.1995 2.416C72.1995 1.968 72.3489 1.59467 72.6475 1.296C72.9462 0.978665 73.3289 0.819998 73.7955 0.819998C74.2622 0.819998 74.6449 0.978665 74.9435 1.296C75.2422 1.59467 75.3915 1.968 75.3915 2.416C75.3915 2.88267 75.2422 3.27467 74.9435 3.592C74.6449 3.89067 74.2622 4.04 73.7955 4.04Z" fill="#6D8EFD"/>
<defs>
<linearGradient id="paint0_linear_2734_3" x1="38.5" y1="-8" x2="38.5" y2="24.9412" gradientUnits="userSpaceOnUse">
<stop offset="0.335" stop-color="#54C5FB"/>
<stop offset="0.8" stop-color="#7971FD"/>
</linearGradient>
</defs>
</svg>
